<svg width="144" height="144" xmlns="http://www.w3.org/2000/svg">
    <rect width="144" height="144" rx="27" fill="url(#gradient)"/>
    <path d="M36 47.232C36 42.768 39.168000000000006 40.464000000000006 42.768 40.464000000000006H101.232C104.832 40.464000000000006 108 42.768 108 47.232V101.232C108 104.832 104.832 108 101.232 108H42.768C39.168000000000006 108 36 104.832 36 101.232V47.232Z" stroke="white" stroke-width="6.768" fill="none"/>
    <path d="M108 58.464000000000006L36 58.464000000000006" stroke="white" stroke-width="6.768"/>
    <path d="M54 27L54 54" stroke="white" stroke-width="6.768" stroke-linecap="round"/>
    <path d="M90 27L90 54" stroke="white" stroke-width="6.768" stroke-linecap="round"/>
    <circle cx="54" cy="76.464" r="4.464" fill="white"/>
    <circle cx="72" cy="76.464" r="4.464" fill="white"/>
    <circle cx="90" cy="76.464" r="4.464" fill="white"/>
    <circle cx="54" cy="90" r="4.464" fill="white"/>
    <circle cx="72" cy="90" r="4.464" fill="white"/>
    <defs>
      <linearGradient id="gradient" x1="0" y1="0" x2="144" y2="144" gradientUnits="userSpaceOnUse">
        <stop stop-color="#B68D2C"/>
        <stop offset="1" stop-color="#D4A943"/>
      </linearGradient>
    </defs>
  </svg>